<?xml version="1.0" standalone="no"?><!DOCTYPE svg PUBLIC "-//W3C//DTD SVG 1.1//EN" "http://www.w3.org/Graphics/SVG/1.1/DTD/svg11.dtd"><svg t="1689661381284" class="icon" viewBox="0 0 1024 1024" version="1.1" xmlns="http://www.w3.org/2000/svg" p-id="3322" xmlns:xlink="http://www.w3.org/1999/xlink" width="200" height="200"><path d="M917.333333 814.933333H106.666667c-36.266667 0-64-27.733333-64-64V192c0-36.266667 27.733333-64 64-64h810.666666c36.266667 0 64 27.733333 64 64v558.933333c0 36.266667-27.733333 64-64 64zM106.666667 170.666667c-12.8 0-21.333333 8.533333-21.333334 21.333333v558.933333c0 12.8 8.533333 21.333333 21.333334 21.333334h810.666666c12.8 0 21.333333-8.533333 21.333334-21.333334V192c0-12.8-8.533333-21.333333-21.333334-21.333333H106.666667z" fill="#333333" p-id="3323"></path><path d="M512 426.666667c-59.733333 0-106.666667-46.933333-106.666667-106.666667s46.933333-106.666667 106.666667-106.666667 106.666667 46.933333 106.666667 106.666667-46.933333 106.666667-106.666667 106.666667z m0-170.666667c-36.266667 0-64 27.733333-64 64s27.733333 64 64 64 64-27.733333 64-64-27.733333-64-64-64zM682.666667 595.2H341.333333c-6.4 0-12.8-2.133333-17.066666-6.4-4.266667-4.266667-6.4-10.666667-4.266667-17.066667 4.266667-27.733333 21.333333-53.333333 44.8-68.266666 19.2-10.666667 70.4-36.266667 147.2-36.266667 53.333333 0 102.4 12.8 145.066667 36.266667 25.6 14.933333 42.666667 40.533333 44.8 68.266666 0 6.4 0 12.8-4.266667 17.066667-2.133333 4.266667-8.533333 6.4-14.933333 6.4z m-309.333334-42.666667h279.466667c-4.266667-4.266667-8.533333-8.533333-14.933333-12.8-36.266667-19.2-78.933333-29.866667-125.866667-29.866666-66.133333 0-108.8 21.333333-125.866667 29.866666l-12.8 12.8zM746.666667 896H277.333333c-12.8 0-21.333333-8.533333-21.333333-21.333333s8.533333-21.333333 21.333333-21.333334h469.333334c12.8 0 21.333333 8.533333 21.333333 21.333334s-8.533333 21.333333-21.333333 21.333333zM256 704H170.666667c-12.8 0-21.333333-8.533333-21.333334-21.333333s8.533333-21.333333 21.333334-21.333334h85.333333c12.8 0 21.333333 8.533333 21.333333 21.333334s-8.533333 21.333333-21.333333 21.333333zM469.333333 704h-85.333333c-12.8 0-21.333333-8.533333-21.333333-21.333333s8.533333-21.333333 21.333333-21.333334h85.333333c12.8 0 21.333333 8.533333 21.333334 21.333334s-8.533333 21.333333-21.333334 21.333333zM682.666667 704h-85.333334c-12.8 0-21.333333-8.533333-21.333333-21.333333s8.533333-21.333333 21.333333-21.333334h85.333334c12.8 0 21.333333 8.533333 21.333333 21.333334s-8.533333 21.333333-21.333333 21.333333zM874.666667 704h-85.333334c-12.8 0-21.333333-8.533333-21.333333-21.333333s8.533333-21.333333 21.333333-21.333334h85.333334c12.8 0 21.333333 8.533333 21.333333 21.333334s-8.533333 21.333333-21.333333 21.333333z" fill="#333333" p-id="3324"></path></svg>