<svg width="256" height="256" viewBox="0 0 256 256" fill="none" xmlns="http://www.w3.org/2000/svg">
<path d="M219 26H37C28.1634 26 21 33.1634 21 42V104.022V166.044C21 174.88 28.1635 182.044 37 182.044H84.4584C86.8709 182.044 89.1546 183.132 90.6736 185.006L120.408 221.695C123.512 225.525 129.307 225.664 132.591 221.987L165.872 184.715C167.39 183.015 169.56 182.044 171.839 182.044H219C227.837 182.044 235 174.88 235 166.044V107.054V66.5272V42C235 33.1634 227.837 26 219 26Z" stroke="black" stroke-width="14"/>
<path d="M59.5 70C59.5 65.5817 63.0817 62 67.5 62H165C169.418 62 173 65.5817 173 70V137C173 141.418 169.418 145 165 145H67.5C63.0817 145 59.5 141.418 59.5 137V70Z" fill="black"/>
<path d="M158.411 106.503C156.602 104.91 156.602 102.09 158.411 100.497L194.107 69.077C196.691 66.8027 200.75 68.6374 200.75 72.0796V134.92C200.75 138.363 196.691 140.197 194.107 137.923L158.411 106.503Z" fill="black"/>
<path d="M139.776 100.216C142.065 101.807 142.065 105.193 139.776 106.784L114.033 124.68C111.381 126.524 107.75 124.626 107.75 121.395V85.6045C107.75 82.3744 111.381 80.4764 114.033 82.3202L139.776 100.216Z" fill="#F56C6C"/>
</svg>
