<svg width="16" height="16" viewBox="0 0 16 16" fill="none" xmlns="http://www.w3.org/2000/svg">
<g clip-path="url(#clip0_702_55)">
<rect width="16" height="16" fill="white"/>
<path d="M9.77516e-06 4C9.77516e-06 3.46957 0.210723 2.96086 0.585796 2.58579C0.960869 2.21071 1.46958 2 2.00001 2H14C14.5304 2 15.0391 2.21071 15.4142 2.58579C15.7893 2.96086 16 3.46957 16 4V12C16 12.5304 15.7893 13.0391 15.4142 13.4142C15.0391 13.7893 14.5304 14 14 14C10.3333 14 2.00001 14 2.00001 14L0 15L9.77516e-06 4ZM5.00001 8C5.00001 7.73478 4.89465 7.48043 4.70712 7.29289C4.51958 7.10536 4.26523 7 4.00001 7C3.73479 7 3.48044 7.10536 3.2929 7.29289C3.10537 7.48043 3.00001 7.73478 3.00001 8C3.00001 8.26522 3.10537 8.51957 3.2929 8.70711C3.48044 8.89464 3.73479 9 4.00001 9C4.26523 9 4.51958 8.89464 4.70712 8.70711C4.89465 8.51957 5.00001 8.26522 5.00001 8ZM9.00001 8C9.00001 7.73478 8.89465 7.48043 8.70712 7.29289C8.51958 7.10536 8.26523 7 8.00001 7C7.73479 7 7.48044 7.10536 7.2929 7.29289C7.10537 7.48043 7.00001 7.73478 7.00001 8C7.00001 8.26522 7.10537 8.51957 7.2929 8.70711C7.48044 8.89464 7.73479 9 8.00001 9C8.26523 9 8.51958 8.89464 8.70712 8.70711C8.89465 8.51957 9.00001 8.26522 9.00001 8ZM12 9C12.2652 9 12.5196 8.89464 12.7071 8.70711C12.8947 8.51957 13 8.26522 13 8C13 7.73478 12.8947 7.48043 12.7071 7.29289C12.5196 7.10536 12.2652 7 12 7C11.7348 7 11.4804 7.10536 11.2929 7.29289C11.1054 7.48043 11 7.73478 11 8C11 8.26522 11.1054 8.51957 11.2929 8.70711C11.4804 8.89464 11.7348 9 12 9Z" fill="black"/>
</g>
<defs>
<clipPath id="clip0_702_55">
<rect width="16" height="16" fill="white"/>
</clipPath>
</defs>
</svg>
