<svg width="16" height="13" viewBox="0 0 16 13" fill="none" xmlns="http://www.w3.org/2000/svg">
<path d="M9.77516e-06 2C9.77516e-06 1.46957 0.210723 0.960859 0.585796 0.585786C0.960869 0.210714 1.46958 0 2.00001 0L14 0C14.5304 0 15.0391 0.210714 15.4142 0.585786C15.7893 0.960859 16 1.46957 16 2V10C16 10.5304 15.7893 11.0391 15.4142 11.4142C15.0391 11.7893 14.5304 12 14 12C10.3333 12 2.00001 12 2.00001 12L0 13L9.77516e-06 2ZM5.00001 6C5.00001 5.73478 4.89465 5.48043 4.70712 5.29289C4.51958 5.10536 4.26523 5 4.00001 5C3.73479 5 3.48044 5.10536 3.2929 5.29289C3.10537 5.48043 3.00001 5.73478 3.00001 6C3.00001 6.26522 3.10537 6.51957 3.2929 6.70711C3.48044 6.89464 3.73479 7 4.00001 7C4.26523 7 4.51958 6.89464 4.70712 6.70711C4.89465 6.51957 5.00001 6.26522 5.00001 6ZM9.00001 6C9.00001 5.73478 8.89465 5.48043 8.70712 5.29289C8.51958 5.10536 8.26523 5 8.00001 5C7.73479 5 7.48044 5.10536 7.2929 5.29289C7.10537 5.48043 7.00001 5.73478 7.00001 6C7.00001 6.26522 7.10537 6.51957 7.2929 6.70711C7.48044 6.89464 7.73479 7 8.00001 7C8.26523 7 8.51958 6.89464 8.70712 6.70711C8.89465 6.51957 9.00001 6.26522 9.00001 6ZM12 7C12.2652 7 12.5196 6.89464 12.7071 6.70711C12.8947 6.51957 13 6.26522 13 6C13 5.73478 12.8947 5.48043 12.7071 5.29289C12.5196 5.10536 12.2652 5 12 5C11.7348 5 11.4804 5.10536 11.2929 5.29289C11.1054 5.48043 11 5.73478 11 6C11 6.26522 11.1054 6.51957 11.2929 6.70711C11.4804 6.89464 11.7348 7 12 7Z" fill="black"/>
</svg>
